0
SECTION
2
HEADER
9
$ACADVER
1
AC1009
9
$INSBASE
10
0.000
20
0.000
30
0.000
9
$EXTMIN
10
7513938.660
20
4691208.600
9
$EXTMAX
10
7513938.660
20
4691208.600
0
ENDSEC
0
SECTION
2
TABLES
0
TABLE
2
LTYPE
70
1
0
LTYPE
2
continuous
70
64
3
Solid line
72
65
73
0
40
0.000
0
ENDTAB
0
TABLE
2
LAYER
70
1
0
LAYER
2
Parcela
70
64
62
7
6
continuous
0
ENDTAB
0
TABLE
2
STYLE
70
1
0
STYLE
2
ANNOTATIVE
70
0
40
0
41
40
50
50
71
0
42
1
3
ARIAL.TTF
4

0
ENDTAB
0
TABLE
2
VIEW
70
0
0
ENDTAB
0
ENDSEC
0
SECTION
2
BLOCKS
0
ENDSEC
0
SECTION
2
ENTITIES
0
POLYLINE
66
1
8
PARCELA
70
0
10
7508801.616
20
4697919.769
0
VERTEX
8
PARCELA
10
7508801.616
20
4697919.769
0
VERTEX
8
PARCELA
10
7508806.945
20
4697885.459
0
VERTEX
8
PARCELA
10
7508681.564
20
4697859.307
0
VERTEX
8
PARCELA
10
7508677.724
20
4697875.687
0
VERTEX
8
PARCELA
10
7508631.004
20
4697865.260
0
VERTEX
8
PARCELA
10
7508582.323
20
4697851.313
0
VERTEX
8
PARCELA
10
7508558.253
20
4697843.454
0
VERTEX
8
PARCELA
10
7508551.382
20
4697841.355
0
VERTEX
8
PARCELA
10
7508544.263
20
4697856.785
0
VERTEX
8
PARCELA
10
7508558.183
20
4697861.164
0
VERTEX
8
PARCELA
10
7508559.583
20
4697861.604
0
VERTEX
8
PARCELA
10
7508607.714
20
4697876.101
0
VERTEX
8
PARCELA
10
7508675.005
20
4697892.467
0
VERTEX
8
PARCELA
10
7508721.735
20
4697903.214
0
VERTEX
8
PARCELA
10
7508801.616
20
4697919.769
0
SEQEND
0
TEXT
8
Nr Parceles Baze
10
7508739.675
20
4697884.533
40
0.800000
1
182-0
0
TEXT
8
Nr e Pikave Gjeodezike te Parceles Baze
10
7508806.945
20
4697885.459
40
0.800000
1
9398
0
POINT
8
Pikat
10
7508806.945
20
4697885.459
0
TEXT
8
Nr e Pikave Gjeodezike te Parceles Baze
10
7508801.616
20
4697919.769
40
0.800000
1
9399
0
POINT
8
Pikat
10
7508801.616
20
4697919.769
0
TEXT
8
Nr e Pikave Gjeodezike te Parceles Baze
10
7508721.735
20
4697903.214
40
0.800000
1
9428
0
POINT
8
Pikat
10
7508721.735
20
4697903.214
0
TEXT
8
Nr e Pikave Gjeodezike te Parceles Baze
10
7508675.005
20
4697892.467
40
0.800000
1
9429
0
POINT
8
Pikat
10
7508675.005
20
4697892.467
0
TEXT
8
Nr e Pikave Gjeodezike te Parceles Baze
10
7508607.714
20
4697876.101
40
0.800000
1
9430
0
POINT
8
Pikat
10
7508607.714
20
4697876.101
0
TEXT
8
Nr e Pikave Gjeodezike te Parceles Baze
10
7508559.583
20
4697861.604
40
0.800000
1
9431
0
POINT
8
Pikat
10
7508559.583
20
4697861.604
0
TEXT
8
Nr e Pikave Gjeodezike te Parceles Baze
10
7508558.183
20
4697861.164
40
0.800000
1
9432
0
POINT
8
Pikat
10
7508558.183
20
4697861.164
0
TEXT
8
Nr e Pikave Gjeodezike te Parceles Baze
10
7508544.263
20
4697856.785
40
0.800000
1
9433
0
POINT
8
Pikat
10
7508544.263
20
4697856.785
0
TEXT
8
Nr e Pikave Gjeodezike te Parceles Baze
10
7508681.564
20
4697859.307
40
0.800000
1
9437
0
POINT
8
Pikat
10
7508681.564
20
4697859.307
0
TEXT
8
Nr e Pikave Gjeodezike te Parceles Baze
10
7508677.724
20
4697875.687
40
0.800000
1
9438
0
POINT
8
Pikat
10
7508677.724
20
4697875.687
0
TEXT
8
Nr e Pikave Gjeodezike te Parceles Baze
10
7508631.004
20
4697865.260
40
0.800000
1
9439
0
POINT
8
Pikat
10
7508631.004
20
4697865.260
0
TEXT
8
Nr e Pikave Gjeodezike te Parceles Baze
10
7508582.323
20
4697851.313
40
0.800000
1
9440
0
POINT
8
Pikat
10
7508582.323
20
4697851.313
0
TEXT
8
Nr e Pikave Gjeodezike te Parceles Baze
10
7508558.253
20
4697843.454
40
0.800000
1
9441
0
POINT
8
Pikat
10
7508558.253
20
4697843.454
0
TEXT
8
Nr e Pikave Gjeodezike te Parceles Baze
10
7508551.382
20
4697841.355
40
0.800000
1
9442
0
POINT
8
Pikat
10
7508551.382
20
4697841.355
0
ENDSEC
0
EOF
